<svg width="20" height="20" viewBox="0 0 20 20" fill="none" xmlns="http://www.w3.org/2000/svg">
<path d="M0.25 10C0.25 4.61807 4.61807 0.25 10 0.25C15.3819 0.25 19.75 4.61807 19.75 10C19.75 15.3819 15.3819 19.75 10 19.75C4.61807 19.75 0.25 15.3819 0.25 10Z" stroke="#0F172A" stroke-opacity="0.16" stroke-width="0.5"/>
<path d="M11.5881 5.92127C11.2634 5.59655 10.7369 5.59655 10.4122 5.92127C10.0878 6.24564 10.0874 6.7714 10.4113 7.09627L12.4752 9.16665H5.16683C4.70659 9.16665 4.3335 9.53974 4.3335 9.99998C4.3335 10.4602 4.70659 10.8333 5.16683 10.8333H12.4752L10.4113 12.9037C10.0874 13.2286 10.0878 13.7543 10.4122 14.0787C10.7369 14.4034 11.2634 14.4034 11.5881 14.0787L15.3133 10.3535C15.5085 10.1583 15.5085 9.84169 15.3133 9.64643L11.5881 5.92127Z" fill="#64748B"/>
</svg>
