<svg width="20" height="20" viewBox="0 0 20 20" fill="none" xmlns="http://www.w3.org/2000/svg">
<path d="M13.8318 7.34337C14.1563 7.0189 14.1563 6.49284 13.8318 6.16837C13.5073 5.8439 12.9813 5.8439 12.6568 6.16837L10.0002 8.82499L7.34356 6.16837C7.01909 5.8439 6.49302 5.8439 6.16855 6.16837C5.84409 6.49284 5.84409 7.0189 6.16855 7.34337L8.82517 9.99999L6.16856 12.6566C5.84409 12.9811 5.84409 13.5071 6.16855 13.8316C6.49302 14.1561 7.01909 14.1561 7.34355 13.8316L10.0002 11.175L12.6568 13.8316C12.9813 14.1561 13.5073 14.1561 13.8318 13.8316C14.1563 13.5071 14.1563 12.9811 13.8318 12.6566L11.1752 9.99999L13.8318 7.34337Z" fill="#D32F2F"/>
</svg>
