<svg width="20" height="20" viewBox="0 0 20 20" fill="none" xmlns="http://www.w3.org/2000/svg">
<path d="M0.25 10C0.25 4.61807 4.61807 0.25 10 0.25C15.3819 0.25 19.75 4.61807 19.75 10C19.75 15.3819 15.3819 19.75 10 19.75C4.61807 19.75 0.25 15.3819 0.25 10Z" stroke="#CBD5E1" stroke-width="0.5"/>
<path d="M13.8315 7.34337C14.156 7.0189 14.156 6.49284 13.8316 6.16837C13.5071 5.8439 12.981 5.8439 12.6566 6.16837L9.99993 8.82499L7.34331 6.16837C7.01884 5.8439 6.49278 5.8439 6.16831 6.16837C5.84384 6.49284 5.84384 7.0189 6.16831 7.34337L8.82493 9.99999L6.16831 12.6566C5.84384 12.9811 5.84384 13.5071 6.16831 13.8316C6.49278 14.1561 7.01884 14.1561 7.34331 13.8316L9.99993 11.175L12.6566 13.8316C12.981 14.1561 13.5071 14.1561 13.8316 13.8316C14.156 13.5071 14.156 12.9811 13.8316 12.6566L11.1749 9.99999L13.8315 7.34337Z" fill="#64748B"/>
</svg>
