<svg width="53" height="26" viewBox="0 0 53 26" fill="none" xmlns="http://www.w3.org/2000/svg">
<path d="M20.8814 10.0701H28.0433V7.89983H19.7963C19.197 7.89983 18.7111 8.38567 18.7111 8.98497V15.4958C18.7111 16.9341 19.8771 18.1001 21.3154 18.1001H28.0433V15.9298H20.8814V10.0701Z" fill="#64748B"/>
<path d="M27.1752 12.0233H21.0984V14.1936H27.1752V12.0233Z" fill="#64748B"/>
<path fill-rule="evenodd" clip-rule="evenodd" d="M38.6776 7.89983C39.0372 7.89983 39.3287 8.19133 39.3287 8.55092V18.1001H37.1584V15.7128H31.4072V18.1001H29.2369V12.6744C29.2369 10.0375 31.3746 7.89983 34.0115 7.89983H38.6776ZM31.4072 13.5425H37.1584V10.0701H34.0115C32.5732 10.0701 31.4072 11.2361 31.4072 12.6744V13.5425Z" fill="#64748B"/>
<path d="M43.7778 7.89983C42.0398 7.89983 40.6309 9.30875 40.6309 11.0467C40.6309 12.7847 42.0398 14.1936 43.7778 14.1936H47.7385C48.2479 14.1936 48.6609 14.6066 48.6609 15.116C48.6609 15.6254 48.2479 16.0384 47.7385 16.0384H40.7394V18.2086H47.7385C49.4465 18.2086 50.8311 16.824 50.8311 15.116C50.8311 13.408 49.4465 12.0233 47.7385 12.0233H43.7778C43.2384 12.0233 42.8011 11.5861 42.8011 11.0467C42.8011 10.5074 43.2384 10.0701 43.7778 10.0701H49.963V7.89983H43.7778Z" fill="#64748B"/>
<path d="M6.99162 4.64445H9.59595L14.5876 19.6193V21.3555H2V19.6193L6.99162 4.64445Z" fill="#64748B"/>
<path d="M7.44062 8.33389H9.1469L12.2002 17.6012V18.7512H4.38727V17.6012L7.44062 8.33389Z" fill="#CBD5E1"/>
<path d="M7.9146 11.5893H8.67295L10.03 16.0539V16.581H6.55756V16.0539L7.9146 11.5893Z" fill="#F8FAFC"/>
</svg>
