<svg width="20" height="20" viewBox="0 0 20 20" fill="none" xmlns="http://www.w3.org/2000/svg">
<path d="M10 0C4.48 0 0 4.48 0 10C0 15.52 4.48 20 10 20C15.52 20 20 15.52 20 10C20 4.48 15.52 0 10 0Z" fill="#475569"/>
<path d="M15.1941 6.71251C14.8038 6.31941 14.1684 6.31829 13.7766 6.71L8.89665 11.59L6.71937 9.42027C6.32947 9.03173 5.69859 9.03227 5.30937 9.42149C4.91967 9.81119 4.91967 10.443 5.30937 10.8327L8.5431 14.0664C8.73836 14.2617 9.05495 14.2617 9.25021 14.0664L15.1917 8.125C15.5814 7.73524 15.5825 7.10365 15.1941 6.71251Z" fill="white"/>
</svg>
