<svg width="20" height="20" viewBox="0 0 20 20" fill="none" xmlns="http://www.w3.org/2000/svg">
<path d="M0.25 10C0.25 4.61807 4.61807 0.25 10 0.25C15.3819 0.25 19.75 4.61807 19.75 10C19.75 15.3819 15.3819 19.75 10 19.75C4.61807 19.75 0.25 15.3819 0.25 10Z" stroke="#CBD5E1" stroke-width="0.5"/>
<path d="M15.1941 6.71251C14.8038 6.31941 14.1684 6.31829 13.7766 6.71L8.89665 11.59L6.71937 9.42027C6.32947 9.03173 5.69859 9.03227 5.30937 9.42149C4.91967 9.81119 4.91967 10.443 5.30937 10.8327L8.5431 14.0664C8.73836 14.2617 9.05495 14.2617 9.25021 14.0664L15.1917 8.125C15.5814 7.73524 15.5825 7.10365 15.1941 6.71251Z" fill="#64748B"/>
</svg>
