<svg width="16" height="16" viewBox="0 0 16 16" fill="none" xmlns="http://www.w3.org/2000/svg">
<path d="M8.05718 4.2288L8.99999 3.28599C9.62511 2.66087 10.451 2.28769 11.2959 2.24857C12.1408 2.20944 12.9356 2.50756 13.5054 3.07734C14.0752 3.64713 14.3733 4.4419 14.3342 5.28683C14.295 6.13176 13.9219 6.95762 13.2967 7.58274L12.3539 8.52555M9.52551 11.354L8.5827 12.2968C7.95758 12.9219 7.13171 13.2951 6.28679 13.3342C5.44186 13.3733 4.64709 13.0752 4.0773 12.5054C3.50752 11.9356 3.2094 11.1409 3.24853 10.2959C3.28765 9.45102 3.66083 8.62515 4.28595 8.00003L5.22876 7.05722" stroke="#437EF7" stroke-width="1.5" stroke-linecap="round" stroke-linejoin="round"/>
</svg>
