<svg width="25" height="24" viewBox="0 0 25 24" fill="none" xmlns="http://www.w3.org/2000/svg">
<path d="M12.8312 13C13.3835 13 13.8312 12.5523 13.8312 12C13.8312 11.4477 13.3835 11 12.8312 11C12.2789 11 11.8312 11.4477 11.8312 12C11.8312 12.5523 12.2789 13 12.8312 13Z" fill="#64748B" stroke="#64748B" stroke-width="1.5" stroke-linecap="round" stroke-linejoin="round"/>
<path d="M19.8312 13C20.3835 13 20.8312 12.5523 20.8312 12C20.8312 11.4477 20.3835 11 19.8312 11C19.2789 11 18.8312 11.4477 18.8312 12C18.8312 12.5523 19.2789 13 19.8312 13Z" fill="#64748B" stroke="#64748B" stroke-width="1.5" stroke-linecap="round" stroke-linejoin="round"/>
<path d="M5.83118 13C6.38346 13 6.83118 12.5523 6.83118 12C6.83118 11.4477 6.38346 11 5.83118 11C5.27889 11 4.83118 11.4477 4.83118 12C4.83118 12.5523 5.27889 13 5.83118 13Z" fill="#64748B" stroke="#64748B" stroke-width="1.5" stroke-linecap="round" stroke-linejoin="round"/>
</svg>
