<svg width="24" height="24" viewBox="0 0 24 24" fill="none" xmlns="http://www.w3.org/2000/svg">
<path fill-rule="evenodd" clip-rule="evenodd" d="M11.7649 7.27116C14.5334 5.7804 17.6286 5.00003 20.773 5.00003V15C20.773 15 20.773 15 20.7729 15C19.6684 15 18.7729 15.8955 18.7729 17C18.7729 18.1046 19.6684 19 20.7729 19C20.773 19 20.773 19 20.773 19V22.1429C20.773 22.9393 19.8874 23.4162 19.2225 22.9778L13.7729 19.3848V21C13.7729 21.5523 13.3252 22 12.7729 22C12.2207 22 11.7729 21.5523 11.7729 21V18.0662L9.77294 16.7475V19C9.77294 19.5523 9.32522 20 8.77294 20C8.22065 20 7.77294 19.5523 7.77294 19V15.4289L4.9104 13.5416C6.64119 10.9165 8.99643 8.76193 11.7649 7.27116ZM17.7729 10C18.3252 10 18.7729 9.55233 18.7729 9.00004C18.7729 8.44776 18.3252 8.00004 17.7729 8.00004C17.2207 8.00004 16.7729 8.44776 16.7729 9.00004C16.7729 9.55233 17.2207 10 17.7729 10ZM13.5 15C14.3284 15 15 14.3285 15 13.5C15 12.6716 14.3284 12 13.5 12C12.6716 12 12 12.6716 12 13.5C12 14.3285 12.6716 15 13.5 15Z" fill="#FFB65D"/>
<path d="M20.773 5.00003H21.273V4.50003H20.773V5.00003ZM20.773 15V15.5H21.273V15H20.773ZM20.773 19H21.273V18.5H20.773V19ZM19.2225 22.9778L19.4978 22.5604H19.4978L19.2225 22.9778ZM13.7729 19.3848L14.0482 18.9674L13.2729 18.4563V19.3848H13.7729ZM11.7729 18.0662H12.2729V17.7969L12.0482 17.6487L11.7729 18.0662ZM9.77294 16.7475L10.0482 16.3301L9.27294 15.819V16.7475H9.77294ZM7.77294 15.4289H8.27294V15.1597L8.04816 15.0115L7.77294 15.4289ZM4.9104 13.5416L4.49296 13.2664L4.21774 13.6838L4.63518 13.959L4.9104 13.5416ZM20.773 4.50003C17.5459 4.50003 14.3692 5.30094 11.5279 6.83093L12.002 7.7114C14.6976 6.25986 17.7114 5.50003 20.773 5.50003V4.50003ZM21.273 15V5.00003H20.273V15H21.273ZM20.773 14.5C20.773 14.5 20.773 14.5 20.773 14.5C20.773 14.5 20.773 14.5 20.773 14.5H20.773H20.773H20.773H20.773H20.773H20.773H20.773C20.773 14.5 20.773 14.5 20.773 14.5C20.773 14.5 20.773 14.5 20.773 14.5C20.773 14.5 20.773 14.5 20.773 14.5C20.773 14.5 20.773 14.5 20.773 14.5C20.773 14.5 20.773 14.5 20.773 14.5H20.773C20.773 14.5 20.773 14.5 20.773 14.5C20.773 14.5 20.773 14.5 20.773 14.5C20.773 14.5 20.773 14.5 20.773 14.5C20.773 14.5 20.773 14.5 20.773 14.5H20.773C20.773 14.5 20.773 14.5 20.773 14.5C20.773 14.5 20.773 14.5 20.773 14.5C20.773 14.5 20.773 14.5 20.773 14.5H20.773C20.773 14.5 20.773 14.5 20.773 14.5C20.773 14.5 20.773 14.5 20.773 14.5C20.773 14.5 20.773 14.5 20.773 14.5C20.773 14.5 20.773 14.5 20.773 14.5H20.773C20.773 14.5 20.773 14.5 20.773 14.5C20.7729 14.5 20.7729 14.5 20.7729 14.5C20.7729 14.5 20.7729 14.5 20.7729 14.5C20.7729 14.5 20.7729 14.5 20.7729 14.5C20.7729 14.5 20.7729 14.5 20.7729 14.5H20.7729H20.7729H20.7729H20.7729H20.7729H20.7729H20.7729C20.7729 14.5 20.7729 14.5 20.7729 14.5C20.7729 14.5 20.7729 14.5 20.7729 14.5V15.5C20.7729 15.5 20.7729 15.5 20.7729 15.5C20.7729 15.5 20.7729 15.5 20.7729 15.5H20.7729H20.7729H20.7729H20.7729H20.7729H20.7729H20.7729C20.7729 15.5 20.7729 15.5 20.7729 15.5C20.7729 15.5 20.7729 15.5 20.7729 15.5C20.7729 15.5 20.7729 15.5 20.7729 15.5C20.7729 15.5 20.7729 15.5 20.773 15.5C20.773 15.5 20.773 15.5 20.773 15.5H20.773C20.773 15.5 20.773 15.5 20.773 15.5C20.773 15.5 20.773 15.5 20.773 15.5C20.773 15.5 20.773 15.5 20.773 15.5C20.773 15.5 20.773 15.5 20.773 15.5H20.773C20.773 15.5 20.773 15.5 20.773 15.5C20.773 15.5 20.773 15.5 20.773 15.5C20.773 15.5 20.773 15.5 20.773 15.5H20.773C20.773 15.5 20.773 15.5 20.773 15.5C20.773 15.5 20.773 15.5 20.773 15.5C20.773 15.5 20.773 15.5 20.773 15.5C20.773 15.5 20.773 15.5 20.773 15.5H20.773C20.773 15.5 20.773 15.5 20.773 15.5C20.773 15.5 20.773 15.5 20.773 15.5C20.773 15.5 20.773 15.5 20.773 15.5C20.773 15.5 20.773 15.5 20.773 15.5C20.773 15.5 20.773 15.5 20.773 15.5H20.773H20.773H20.773H20.773H20.773H20.773H20.773C20.773 15.5 20.773 15.5 20.773 15.5C20.773 15.5 20.773 15.5 20.773 15.5V14.5ZM20.7729 14.5C19.3922 14.5 18.2729 15.6193 18.2729 17H19.2729C19.2729 16.1716 19.9445 15.5 20.7729 15.5V14.5ZM18.2729 17C18.2729 18.3808 19.3922 19.5 20.7729 19.5V18.5C19.9445 18.5 19.2729 17.8285 19.2729 17H18.2729ZM20.7729 19.5C20.7729 19.5 20.7729 19.5 20.7729 19.5C20.7729 19.5 20.7729 19.5 20.7729 19.5H20.7729H20.7729H20.7729H20.7729H20.7729H20.7729H20.7729C20.7729 19.5 20.7729 19.5 20.7729 19.5C20.7729 19.5 20.7729 19.5 20.7729 19.5C20.7729 19.5 20.7729 19.5 20.7729 19.5C20.7729 19.5 20.7729 19.5 20.773 19.5C20.773 19.5 20.773 19.5 20.773 19.5H20.773C20.773 19.5 20.773 19.5 20.773 19.5C20.773 19.5 20.773 19.5 20.773 19.5C20.773 19.5 20.773 19.5 20.773 19.5C20.773 19.5 20.773 19.5 20.773 19.5H20.773C20.773 19.5 20.773 19.5 20.773 19.5C20.773 19.5 20.773 19.5 20.773 19.5C20.773 19.5 20.773 19.5 20.773 19.5H20.773C20.773 19.5 20.773 19.5 20.773 19.5C20.773 19.5 20.773 19.5 20.773 19.5C20.773 19.5 20.773 19.5 20.773 19.5C20.773 19.5 20.773 19.5 20.773 19.5H20.773C20.773 19.5 20.773 19.5 20.773 19.5C20.773 19.5 20.773 19.5 20.773 19.5C20.773 19.5 20.773 19.5 20.773 19.5C20.773 19.5 20.773 19.5 20.773 19.5C20.773 19.5 20.773 19.5 20.773 19.5H20.773H20.773H20.773H20.773H20.773H20.773H20.773C20.773 19.5 20.773 19.5 20.773 19.5C20.773 19.5 20.773 19.5 20.773 19.5V18.5C20.773 18.5 20.773 18.5 20.773 18.5C20.773 18.5 20.773 18.5 20.773 18.5H20.773H20.773H20.773H20.773H20.773H20.773H20.773C20.773 18.5 20.773 18.5 20.773 18.5C20.773 18.5 20.773 18.5 20.773 18.5C20.773 18.5 20.773 18.5 20.773 18.5C20.773 18.5 20.773 18.5 20.773 18.5C20.773 18.5 20.773 18.5 20.773 18.5H20.773C20.773 18.5 20.773 18.5 20.773 18.5C20.773 18.5 20.773 18.5 20.773 18.5C20.773 18.5 20.773 18.5 20.773 18.5C20.773 18.5 20.773 18.5 20.773 18.5H20.773C20.773 18.5 20.773 18.5 20.773 18.5C20.773 18.5 20.773 18.5 20.773 18.5C20.773 18.5 20.773 18.5 20.773 18.5H20.773C20.773 18.5 20.773 18.5 20.773 18.5C20.773 18.5 20.773 18.5 20.773 18.5C20.773 18.5 20.773 18.5 20.773 18.5C20.773 18.5 20.773 18.5 20.773 18.5H20.773C20.773 18.5 20.773 18.5 20.773 18.5C20.7729 18.5 20.7729 18.5 20.7729 18.5C20.7729 18.5 20.7729 18.5 20.7729 18.5C20.7729 18.5 20.7729 18.5 20.7729 18.5C20.7729 18.5 20.7729 18.5 20.7729 18.5H20.7729H20.7729H20.7729H20.7729H20.7729H20.7729H20.7729C20.7729 18.5 20.7729 18.5 20.7729 18.5C20.7729 18.5 20.7729 18.5 20.7729 18.5V19.5ZM21.273 22.1429V19H20.273V22.1429H21.273ZM18.9473 23.3952C19.9446 24.0528 21.273 23.3375 21.273 22.1429H20.273C20.273 22.5411 19.8302 22.7795 19.4978 22.5604L18.9473 23.3952ZM13.4977 19.8022L18.9473 23.3952L19.4978 22.5604L14.0482 18.9674L13.4977 19.8022ZM14.2729 21V19.3848H13.2729V21H14.2729ZM12.7729 22.5C13.6014 22.5 14.2729 21.8285 14.2729 21H13.2729C13.2729 21.2762 13.0491 21.5 12.7729 21.5V22.5ZM11.2729 21C11.2729 21.8285 11.9445 22.5 12.7729 22.5V21.5C12.4968 21.5 12.2729 21.2762 12.2729 21H11.2729ZM11.2729 18.0662V21H12.2729V18.0662H11.2729ZM9.49772 17.165L11.4977 18.4836L12.0482 17.6487L10.0482 16.3301L9.49772 17.165ZM10.2729 19V16.7475H9.27294V19H10.2729ZM8.77294 20.5C9.60136 20.5 10.2729 19.8285 10.2729 19H9.27294C9.27294 19.2762 9.04908 19.5 8.77294 19.5V20.5ZM7.27294 19C7.27294 19.8285 7.94451 20.5 8.77294 20.5V19.5C8.4968 19.5 8.27294 19.2762 8.27294 19H7.27294ZM7.27294 15.4289V19H8.27294V15.4289H7.27294ZM4.63518 13.959L7.49772 15.8464L8.04816 15.0115L5.18562 13.1242L4.63518 13.959ZM11.5279 6.83093C8.68652 8.36092 6.2693 10.5722 4.49296 13.2664L5.32784 13.8168C7.01308 11.2608 9.30634 9.16293 12.002 7.7114L11.5279 6.83093ZM18.2729 9.00004C18.2729 9.27619 18.0491 9.50004 17.7729 9.50004V10.5C18.6014 10.5 19.2729 9.82847 19.2729 9.00004H18.2729ZM17.7729 8.50004C18.0491 8.50004 18.2729 8.7239 18.2729 9.00004H19.2729C19.2729 8.17162 18.6014 7.50004 17.7729 7.50004V8.50004ZM17.2729 9.00004C17.2729 8.7239 17.4968 8.50004 17.7729 8.50004V7.50004C16.9445 7.50004 16.2729 8.17162 16.2729 9.00004H17.2729ZM17.7729 9.50004C17.4968 9.50004 17.2729 9.27619 17.2729 9.00004H16.2729C16.2729 9.82847 16.9445 10.5 17.7729 10.5V9.50004ZM14.5 13.5C14.5 14.0523 14.0523 14.5 13.5 14.5V15.5C14.6046 15.5 15.5 14.6046 15.5 13.5H14.5ZM13.5 12.5C14.0523 12.5 14.5 12.9478 14.5 13.5H15.5C15.5 12.3955 14.6046 11.5 13.5 11.5V12.5ZM12.5 13.5C12.5 12.9478 12.9477 12.5 13.5 12.5V11.5C12.3954 11.5 11.5 12.3955 11.5 13.5H12.5ZM13.5 14.5C12.9477 14.5 12.5 14.0523 12.5 13.5H11.5C11.5 14.6046 12.3954 15.5 13.5 15.5V14.5Z" fill="#1F0B00"/>
<path d="M20.126 3.60001C13.5466 3.90124 7.73853 7.15969 4 12.0772" stroke="#1F0B00" stroke-width="5" stroke-linecap="round"/>
<path d="M20.126 3.60001C13.5466 3.90124 7.73853 7.15969 4 12.0772" stroke="#FC544E" stroke-width="3" stroke-linecap="round"/>
</svg>
