<svg width="512" height="512" viewBox="0 0 512 512" fill="none" xmlns="http://www.w3.org/2000/svg">
<path fill-rule="evenodd" clip-rule="evenodd" d="M346 132.092C351.185 136.629 351.402 144.598 346.53 149.47L236 260L347.016 371.016C351.702 375.702 351.729 383.336 346.722 387.678C343.674 390.321 340.538 392.85 337.319 395.261C317.183 410.344 293.845 420.805 268.97 425.753C236.187 432.274 202.207 428.927 171.326 416.136C140.446 403.344 114.052 381.683 95.4816 353.891C76.9117 326.1 67 293.425 67 260C67 226.575 76.9117 193.901 95.4816 166.109C114.052 138.317 140.446 116.656 171.326 103.864C202.207 91.0732 236.187 87.7265 268.97 94.2474C293.845 99.1952 317.183 109.656 337.319 124.74C338.817 125.861 342.404 128.946 346 132.092ZM280.365 181.694C272.062 176.99 263.019 173.611 253.558 171.729C236.1 168.257 218.004 170.039 201.558 176.851C185.113 183.663 171.057 195.198 161.168 209.999C151.278 224.799 146 242.2 146 260C146 277.8 151.278 295.201 161.168 310.001C171.057 324.802 185.113 336.337 201.559 343.149C218.004 349.961 236.1 351.743 253.558 348.271C263.019 346.389 272.062 343.01 280.365 338.306L320.146 378.087C303.516 389.937 284.493 398.195 264.288 402.214C236.161 407.809 207.006 404.937 180.511 393.963C154.016 382.988 131.37 364.403 115.437 340.558C99.5041 316.713 91 288.678 91 260C91 231.322 99.5041 203.288 115.437 179.442C131.37 155.597 154.016 137.012 180.511 126.038C207.006 115.063 236.161 112.191 264.288 117.786C284.493 121.805 303.516 130.063 320.146 141.913L280.365 181.694Z" fill="#475569"/>
<path fill-rule="evenodd" clip-rule="evenodd" d="M397.016 148.984C401.702 144.298 409.336 144.271 413.678 149.278C425.56 162.979 435.176 178.524 442.136 195.326C450.629 215.831 455 237.807 455 260C455 282.193 450.629 304.169 442.136 324.673C435.176 341.476 425.56 357.021 413.678 370.722C409.336 375.729 401.702 375.702 397.016 371.016L374.805 348.805C373.786 347.786 374.146 346.043 375.386 345.312C381.14 341.921 385 335.661 385 328.5C385 317.73 376.27 309 365.5 309C358.339 309 352.079 312.86 348.688 318.614C347.957 319.854 346.214 320.214 345.195 319.195L294.485 268.485C289.799 263.799 289.799 256.201 294.485 251.515L397.016 148.984ZM385 224.5C385 231.956 378.956 238 371.5 238C364.044 238 358 231.956 358 224.5C358 217.044 364.044 211 371.5 211C378.956 211 385 217.044 385 224.5Z" fill="#1DE9B6"/>
</svg>
